<mxfile host="app.diagrams.net" modified="2024-01-07T11:42:07.442Z" agent="Mozilla/5.0 (X11; Ubuntu; Linux x86_64; rv:121.0) Gecko/20100101 Firefox/121.0" version="22.1.17" etag="YFCz-BQmbx8ZT0NZArkC" type="github">
  <diagram name="Sivu-1" id="ZSrNhZj3kD9wSCXJzkOh">
    <mxGraphModel>
      <root>
        <mxCell id="0" />
        <mxCell id="1" parent="0" />
      </root>
    </mxGraphModel>
  </diagram>
</mxfile>
